<mxfile host="65bd71144e">
    <diagram id="bRaPEsUtMwQ9owTa6pMk" name="Page-1">
        <mxGraphModel dx="913" dy="741" grid="1" gridSize="10" guides="1" tooltips="1" connect="1" arrows="1" fold="1" page="1" pageScale="1" pageWidth="850" pageHeight="1100" math="0" shadow="0">
            <root>
                <mxCell id="0"/>
                <mxCell id="1" parent="0"/>
                <mxCell id="2" value="set" style="ellipse;shape=cloud;whiteSpace=wrap;html=1;" vertex="1" parent="1">
                    <mxGeometry x="240" y="140" width="120" height="80" as="geometry"/>
                </mxCell>
                <mxCell id="3" value="product" style="ellipse;shape=cloud;whiteSpace=wrap;html=1;" vertex="1" parent="1">
                    <mxGeometry x="50" y="140" width="120" height="80" as="geometry"/>
                </mxCell>
                <mxCell id="4" value="bid" style="ellipse;shape=cloud;whiteSpace=wrap;html=1;" vertex="1" parent="1">
                    <mxGeometry x="400" y="140" width="120" height="80" as="geometry"/>
                </mxCell>
                <mxCell id="5" value="costumer" style="ellipse;shape=cloud;whiteSpace=wrap;html=1;" vertex="1" parent="1">
                    <mxGeometry x="560" y="140" width="120" height="80" as="geometry"/>
                </mxCell>
                <mxCell id="6" value="Actor" style="shape=umlActor;verticalLabelPosition=bottom;verticalAlign=top;html=1;outlineConnect=0;" vertex="1" parent="1">
                    <mxGeometry x="360" y="310" width="30" height="60" as="geometry"/>
                </mxCell>
            </root>
        </mxGraphModel>
    </diagram>
    <diagram id="tnBeoDOKdZjEs4FvU7Mq" name="ERD_auction">
        <mxGraphModel dx="1336" dy="741" grid="1" gridSize="10" guides="1" tooltips="1" connect="1" arrows="1" fold="1" page="1" pageScale="1" pageWidth="850" pageHeight="1100" math="0" shadow="0">
            <root>
                <mxCell id="0"/>
                <mxCell id="1" parent="0"/>
                <mxCell id="7aqlcF1taa6f2n0w_Glu-1" value="&lt;span style=&quot;color: rgb(240, 240, 240); font-family: Helvetica; font-size: 12px; font-style: normal; font-variant-ligatures: normal; font-variant-caps: normal; font-weight: 400; letter-spacing: normal; orphans: 2; text-align: center; text-indent: 0px; text-transform: none; widows: 2; word-spacing: 0px; -webkit-text-stroke-width: 0px; background-color: rgb(42, 37, 47); text-decoration-thickness: initial; text-decoration-style: initial; text-decoration-color: initial; float: none; display: inline !important;&quot;&gt;product&lt;/span&gt;" style="rounded=1;whiteSpace=wrap;html=1;" vertex="1" parent="1">
                    <mxGeometry x="160" y="270" width="120" height="60" as="geometry"/>
                </mxCell>
                <mxCell id="7aqlcF1taa6f2n0w_Glu-2" value="&lt;span style=&quot;color: rgb(240, 240, 240); font-family: Helvetica; font-size: 12px; font-style: normal; font-variant-ligatures: normal; font-variant-caps: normal; font-weight: 400; letter-spacing: normal; orphans: 2; text-align: center; text-indent: 0px; text-transform: none; widows: 2; word-spacing: 0px; -webkit-text-stroke-width: 0px; background-color: rgb(42, 37, 47); text-decoration-thickness: initial; text-decoration-style: initial; text-decoration-color: initial; float: none; display: inline !important;&quot;&gt;costumer&lt;/span&gt;" style="rounded=1;whiteSpace=wrap;html=1;" vertex="1" parent="1">
                    <mxGeometry x="600" y="220" width="120" height="60" as="geometry"/>
                </mxCell>
                <mxCell id="7aqlcF1taa6f2n0w_Glu-3" value="name" style="ellipse;whiteSpace=wrap;html=1;" vertex="1" parent="1">
                    <mxGeometry x="100" y="60" width="90" height="50" as="geometry"/>
                </mxCell>
                <mxCell id="7aqlcF1taa6f2n0w_Glu-4" value="&lt;u&gt;product_id&lt;/u&gt;" style="ellipse;whiteSpace=wrap;html=1;" vertex="1" parent="1">
                    <mxGeometry x="20" y="200" width="90" height="50" as="geometry"/>
                </mxCell>
                <mxCell id="7aqlcF1taa6f2n0w_Glu-5" value="&lt;u&gt;user_id&lt;/u&gt;" style="ellipse;whiteSpace=wrap;html=1;" vertex="1" parent="1">
                    <mxGeometry x="420" y="160" width="90" height="50" as="geometry"/>
                </mxCell>
                <mxCell id="7aqlcF1taa6f2n0w_Glu-6" value="email" style="ellipse;whiteSpace=wrap;html=1;" vertex="1" parent="1">
                    <mxGeometry x="540" y="60" width="90" height="50" as="geometry"/>
                </mxCell>
                <mxCell id="7aqlcF1taa6f2n0w_Glu-7" value="last_name" style="ellipse;whiteSpace=wrap;html=1;" vertex="1" parent="1">
                    <mxGeometry x="750" y="90" width="90" height="50" as="geometry"/>
                </mxCell>
                <mxCell id="7aqlcF1taa6f2n0w_Glu-8" value="first_name" style="ellipse;whiteSpace=wrap;html=1;" vertex="1" parent="1">
                    <mxGeometry x="650" y="50" width="90" height="50" as="geometry"/>
                </mxCell>
                <mxCell id="7aqlcF1taa6f2n0w_Glu-9" value="" style="endArrow=none;html=1;entryX=0.5;entryY=0;entryDx=0;entryDy=0;exitX=0.5;exitY=1;exitDx=0;exitDy=0;" edge="1" parent="1" source="7aqlcF1taa6f2n0w_Glu-3" target="7aqlcF1taa6f2n0w_Glu-1">
                    <mxGeometry width="50" height="50" relative="1" as="geometry">
                        <mxPoint x="200" y="430" as="sourcePoint"/>
                        <mxPoint x="450" y="390" as="targetPoint"/>
                        <Array as="points"/>
                    </mxGeometry>
                </mxCell>
                <mxCell id="7aqlcF1taa6f2n0w_Glu-10" value="" style="endArrow=none;html=1;entryX=0.5;entryY=0;entryDx=0;entryDy=0;exitX=0.5;exitY=1;exitDx=0;exitDy=0;" edge="1" parent="1" source="7aqlcF1taa6f2n0w_Glu-4" target="7aqlcF1taa6f2n0w_Glu-1">
                    <mxGeometry width="50" height="50" relative="1" as="geometry">
                        <mxPoint x="400" y="440" as="sourcePoint"/>
                        <mxPoint x="450" y="390" as="targetPoint"/>
                    </mxGeometry>
                </mxCell>
                <mxCell id="7aqlcF1taa6f2n0w_Glu-11" value="" style="endArrow=none;html=1;exitX=0.5;exitY=1;exitDx=0;exitDy=0;entryX=0.5;entryY=0;entryDx=0;entryDy=0;" edge="1" parent="1" source="7aqlcF1taa6f2n0w_Glu-6" target="7aqlcF1taa6f2n0w_Glu-2">
                    <mxGeometry width="50" height="50" relative="1" as="geometry">
                        <mxPoint x="640" y="430" as="sourcePoint"/>
                        <mxPoint x="640" y="480" as="targetPoint"/>
                        <Array as="points"/>
                    </mxGeometry>
                </mxCell>
                <mxCell id="7aqlcF1taa6f2n0w_Glu-12" value="" style="endArrow=none;html=1;exitX=0.5;exitY=1;exitDx=0;exitDy=0;entryX=0.5;entryY=0;entryDx=0;entryDy=0;" edge="1" parent="1" source="7aqlcF1taa6f2n0w_Glu-7" target="7aqlcF1taa6f2n0w_Glu-2">
                    <mxGeometry width="50" height="50" relative="1" as="geometry">
                        <mxPoint x="740" y="380" as="sourcePoint"/>
                        <mxPoint x="625" y="250" as="targetPoint"/>
                    </mxGeometry>
                </mxCell>
                <mxCell id="7aqlcF1taa6f2n0w_Glu-13" value="" style="endArrow=none;html=1;exitX=0.5;exitY=1;exitDx=0;exitDy=0;entryX=0.5;entryY=0;entryDx=0;entryDy=0;" edge="1" parent="1" source="7aqlcF1taa6f2n0w_Glu-5" target="7aqlcF1taa6f2n0w_Glu-2">
                    <mxGeometry width="50" height="50" relative="1" as="geometry">
                        <mxPoint x="520" y="380" as="sourcePoint"/>
                        <mxPoint x="640" y="470" as="targetPoint"/>
                    </mxGeometry>
                </mxCell>
                <mxCell id="7aqlcF1taa6f2n0w_Glu-14" value="" style="endArrow=none;html=1;exitX=0.391;exitY=1.024;exitDx=0;exitDy=0;exitPerimeter=0;entryX=0.5;entryY=0;entryDx=0;entryDy=0;" edge="1" parent="1" source="7aqlcF1taa6f2n0w_Glu-8" target="7aqlcF1taa6f2n0w_Glu-2">
                    <mxGeometry width="50" height="50" relative="1" as="geometry">
                        <mxPoint x="520" y="300" as="sourcePoint"/>
                        <mxPoint x="640" y="470" as="targetPoint"/>
                    </mxGeometry>
                </mxCell>
                <mxCell id="7aqlcF1taa6f2n0w_Glu-15" value="description" style="ellipse;whiteSpace=wrap;html=1;" vertex="1" parent="1">
                    <mxGeometry x="235" y="90" width="90" height="50" as="geometry"/>
                </mxCell>
                <mxCell id="7aqlcF1taa6f2n0w_Glu-16" value="" style="endArrow=none;html=1;entryX=0.5;entryY=1;entryDx=0;entryDy=0;exitX=0.5;exitY=0;exitDx=0;exitDy=0;" edge="1" parent="1" source="7aqlcF1taa6f2n0w_Glu-1" target="7aqlcF1taa6f2n0w_Glu-15">
                    <mxGeometry width="50" height="50" relative="1" as="geometry">
                        <mxPoint x="280" y="440" as="sourcePoint"/>
                        <mxPoint x="330" y="390" as="targetPoint"/>
                    </mxGeometry>
                </mxCell>
                <mxCell id="7aqlcF1taa6f2n0w_Glu-17" value="&lt;span style=&quot;color: rgb(240, 240, 240); font-family: Helvetica; font-size: 12px; font-style: normal; font-variant-ligatures: normal; font-variant-caps: normal; font-weight: 400; letter-spacing: normal; orphans: 2; text-align: center; text-indent: 0px; text-transform: none; widows: 2; word-spacing: 0px; -webkit-text-stroke-width: 0px; background-color: rgb(42, 37, 47); text-decoration-thickness: initial; text-decoration-style: initial; text-decoration-color: initial; float: none; display: inline !important;&quot;&gt;sets&lt;/span&gt;" style="rounded=1;whiteSpace=wrap;html=1;" vertex="1" parent="1">
                    <mxGeometry x="170" y="540" width="120" height="60" as="geometry"/>
                </mxCell>
                <mxCell id="7aqlcF1taa6f2n0w_Glu-18" value="&lt;u&gt;st_price&lt;/u&gt;" style="ellipse;whiteSpace=wrap;html=1;" vertex="1" parent="1">
                    <mxGeometry x="120" y="710" width="90" height="50" as="geometry"/>
                </mxCell>
                <mxCell id="7aqlcF1taa6f2n0w_Glu-19" value="hi_bid" style="ellipse;whiteSpace=wrap;html=1;" vertex="1" parent="1">
                    <mxGeometry x="250" y="710" width="90" height="50" as="geometry"/>
                </mxCell>
                <mxCell id="7aqlcF1taa6f2n0w_Glu-20" value="" style="endArrow=none;html=1;exitX=0.5;exitY=0;exitDx=0;exitDy=0;entryX=0.5;entryY=1;entryDx=0;entryDy=0;" edge="1" parent="1" source="7aqlcF1taa6f2n0w_Glu-18" target="7aqlcF1taa6f2n0w_Glu-17">
                    <mxGeometry width="50" height="50" relative="1" as="geometry">
                        <mxPoint x="320" y="560" as="sourcePoint"/>
                        <mxPoint x="370" y="510" as="targetPoint"/>
                    </mxGeometry>
                </mxCell>
                <mxCell id="7aqlcF1taa6f2n0w_Glu-21" value="" style="endArrow=none;html=1;entryX=0.5;entryY=1;entryDx=0;entryDy=0;exitX=0.5;exitY=0;exitDx=0;exitDy=0;" edge="1" parent="1" source="7aqlcF1taa6f2n0w_Glu-19" target="7aqlcF1taa6f2n0w_Glu-17">
                    <mxGeometry width="50" height="50" relative="1" as="geometry">
                        <mxPoint x="295" y="680" as="sourcePoint"/>
                        <mxPoint x="410" y="650" as="targetPoint"/>
                    </mxGeometry>
                </mxCell>
                <mxCell id="7aqlcF1taa6f2n0w_Glu-23" value="" style="endArrow=ERmany;html=1;exitX=0.5;exitY=0;exitDx=0;exitDy=0;entryX=0.5;entryY=1;entryDx=0;entryDy=0;startArrow=none;startFill=0;endFill=0;" edge="1" parent="1" source="7aqlcF1taa6f2n0w_Glu-17" target="7aqlcF1taa6f2n0w_Glu-1">
                    <mxGeometry width="50" height="50" relative="1" as="geometry">
                        <mxPoint x="220" y="410" as="sourcePoint"/>
                        <mxPoint x="215" y="540" as="targetPoint"/>
                    </mxGeometry>
                </mxCell>
                <mxCell id="7aqlcF1taa6f2n0w_Glu-28" value="bid" style="rounded=1;whiteSpace=wrap;html=1;" vertex="1" parent="1">
                    <mxGeometry x="605" y="540" width="120" height="60" as="geometry"/>
                </mxCell>
                <mxCell id="7aqlcF1taa6f2n0w_Glu-29" value="&lt;u&gt;bid_id&lt;/u&gt;" style="ellipse;whiteSpace=wrap;html=1;" vertex="1" parent="1">
                    <mxGeometry x="470" y="640" width="90" height="50" as="geometry"/>
                </mxCell>
                <mxCell id="7aqlcF1taa6f2n0w_Glu-32" value="&lt;u&gt;password&lt;/u&gt;" style="ellipse;whiteSpace=wrap;html=1;" vertex="1" parent="1">
                    <mxGeometry x="430" y="100" width="90" height="50" as="geometry"/>
                </mxCell>
                <mxCell id="7aqlcF1taa6f2n0w_Glu-33" value="" style="endArrow=none;html=1;entryX=1;entryY=0.5;entryDx=0;entryDy=0;exitX=0.5;exitY=0;exitDx=0;exitDy=0;" edge="1" parent="1" source="7aqlcF1taa6f2n0w_Glu-2" target="7aqlcF1taa6f2n0w_Glu-32">
                    <mxGeometry width="50" height="50" relative="1" as="geometry">
                        <mxPoint x="530" y="200" as="sourcePoint"/>
                        <mxPoint x="580" y="150" as="targetPoint"/>
                    </mxGeometry>
                </mxCell>
                <mxCell id="7aqlcF1taa6f2n0w_Glu-34" value="&lt;u&gt;catalogue_id&lt;/u&gt;" style="ellipse;whiteSpace=wrap;html=1;" vertex="1" parent="1">
                    <mxGeometry y="690" width="90" height="50" as="geometry"/>
                </mxCell>
                <mxCell id="7aqlcF1taa6f2n0w_Glu-35" value="" style="endArrow=none;html=1;exitX=0.5;exitY=0;exitDx=0;exitDy=0;entryX=0.5;entryY=1;entryDx=0;entryDy=0;" edge="1" parent="1" source="7aqlcF1taa6f2n0w_Glu-34" target="7aqlcF1taa6f2n0w_Glu-17">
                    <mxGeometry width="50" height="50" relative="1" as="geometry">
                        <mxPoint x="85" y="530" as="sourcePoint"/>
                        <mxPoint x="5" y="620" as="targetPoint"/>
                    </mxGeometry>
                </mxCell>
                <mxCell id="7aqlcF1taa6f2n0w_Glu-36" value="time" style="ellipse;whiteSpace=wrap;html=1;" vertex="1" parent="1">
                    <mxGeometry x="320" y="670" width="90" height="50" as="geometry"/>
                </mxCell>
                <mxCell id="7aqlcF1taa6f2n0w_Glu-37" value="" style="endArrow=none;html=1;exitX=0.5;exitY=0;exitDx=0;exitDy=0;entryX=0.5;entryY=1;entryDx=0;entryDy=0;" edge="1" parent="1" source="7aqlcF1taa6f2n0w_Glu-36" target="7aqlcF1taa6f2n0w_Glu-17">
                    <mxGeometry width="50" height="50" relative="1" as="geometry">
                        <mxPoint x="390" y="520" as="sourcePoint"/>
                        <mxPoint x="230" y="630" as="targetPoint"/>
                    </mxGeometry>
                </mxCell>
                <mxCell id="7aqlcF1taa6f2n0w_Glu-38" style="edgeStyle=none;html=1;fontColor=#FFFFFF;exitX=0.5;exitY=0;exitDx=0;exitDy=0;endArrow=none;endFill=0;entryX=0.5;entryY=1;entryDx=0;entryDy=0;" edge="1" parent="1" source="7aqlcF1taa6f2n0w_Glu-39" target="7aqlcF1taa6f2n0w_Glu-28">
                    <mxGeometry relative="1" as="geometry">
                        <mxPoint x="665" y="600" as="targetPoint"/>
                    </mxGeometry>
                </mxCell>
                <mxCell id="7aqlcF1taa6f2n0w_Glu-39" value="&lt;u&gt;amount&lt;/u&gt;" style="ellipse;whiteSpace=wrap;html=1;" vertex="1" parent="1">
                    <mxGeometry x="530" y="700" width="90" height="50" as="geometry"/>
                </mxCell>
                <mxCell id="7aqlcF1taa6f2n0w_Glu-40" value="&lt;u&gt;b_date&lt;/u&gt;" style="ellipse;whiteSpace=wrap;html=1;" vertex="1" parent="1">
                    <mxGeometry x="635" y="700" width="90" height="50" as="geometry"/>
                </mxCell>
                <mxCell id="7aqlcF1taa6f2n0w_Glu-41" value="&lt;u&gt;b_time&lt;/u&gt;" style="ellipse;whiteSpace=wrap;html=1;" vertex="1" parent="1">
                    <mxGeometry x="750" y="690" width="90" height="50" as="geometry"/>
                </mxCell>
                <mxCell id="7aqlcF1taa6f2n0w_Glu-43" value="" style="endArrow=none;html=1;fontColor=#FFFFFF;entryX=0.5;entryY=1;entryDx=0;entryDy=0;exitX=1;exitY=0.5;exitDx=0;exitDy=0;" edge="1" parent="1" source="7aqlcF1taa6f2n0w_Glu-29" target="7aqlcF1taa6f2n0w_Glu-28">
                    <mxGeometry width="50" height="50" relative="1" as="geometry">
                        <mxPoint x="400" y="420" as="sourcePoint"/>
                        <mxPoint x="450" y="370" as="targetPoint"/>
                    </mxGeometry>
                </mxCell>
                <mxCell id="7aqlcF1taa6f2n0w_Glu-44" value="" style="endArrow=none;html=1;fontColor=#FFFFFF;exitX=0.5;exitY=0;exitDx=0;exitDy=0;entryX=0.5;entryY=1;entryDx=0;entryDy=0;" edge="1" parent="1" source="7aqlcF1taa6f2n0w_Glu-40" target="7aqlcF1taa6f2n0w_Glu-28">
                    <mxGeometry width="50" height="50" relative="1" as="geometry">
                        <mxPoint x="570" y="675" as="sourcePoint"/>
                        <mxPoint x="680" y="610" as="targetPoint"/>
                    </mxGeometry>
                </mxCell>
                <mxCell id="7aqlcF1taa6f2n0w_Glu-45" value="" style="endArrow=none;html=1;fontColor=#FFFFFF;exitX=0.5;exitY=1;exitDx=0;exitDy=0;entryX=0.5;entryY=0;entryDx=0;entryDy=0;" edge="1" parent="1" source="7aqlcF1taa6f2n0w_Glu-28" target="7aqlcF1taa6f2n0w_Glu-41">
                    <mxGeometry width="50" height="50" relative="1" as="geometry">
                        <mxPoint x="400" y="420" as="sourcePoint"/>
                        <mxPoint x="500" y="440" as="targetPoint"/>
                    </mxGeometry>
                </mxCell>
                <mxCell id="7aqlcF1taa6f2n0w_Glu-48" value="" style="endArrow=ERmany;html=1;fontColor=#FFFFFF;exitX=1;exitY=0.5;exitDx=0;exitDy=0;entryX=0;entryY=0.5;entryDx=0;entryDy=0;startArrow=ERone;startFill=0;endFill=0;" edge="1" parent="1" source="7aqlcF1taa6f2n0w_Glu-17" target="7aqlcF1taa6f2n0w_Glu-28">
                    <mxGeometry width="50" height="50" relative="1" as="geometry">
                        <mxPoint x="400" y="420" as="sourcePoint"/>
                        <mxPoint x="390" y="570" as="targetPoint"/>
                    </mxGeometry>
                </mxCell>
                <mxCell id="7aqlcF1taa6f2n0w_Glu-50" value="" style="endArrow=none;html=1;fontColor=#FFFFFF;entryX=0.5;entryY=1;entryDx=0;entryDy=0;startArrow=ERmany;endFill=0;startFill=0;" edge="1" parent="1" source="7aqlcF1taa6f2n0w_Glu-28" target="7aqlcF1taa6f2n0w_Glu-2">
                    <mxGeometry width="50" height="50" relative="1" as="geometry">
                        <mxPoint x="660" y="370" as="sourcePoint"/>
                        <mxPoint x="450" y="370" as="targetPoint"/>
                    </mxGeometry>
                </mxCell>
                <mxCell id="DvpEEzrvTe-u_2cibs0W-5" value="image" style="ellipse;whiteSpace=wrap;html=1;" vertex="1" parent="1">
                    <mxGeometry x="290" y="150" width="90" height="50" as="geometry"/>
                </mxCell>
                <mxCell id="DvpEEzrvTe-u_2cibs0W-6" value="" style="endArrow=none;html=1;entryX=0.5;entryY=1;entryDx=0;entryDy=0;exitX=0.5;exitY=0;exitDx=0;exitDy=0;" edge="1" parent="1" source="7aqlcF1taa6f2n0w_Glu-1" target="DvpEEzrvTe-u_2cibs0W-5">
                    <mxGeometry width="50" height="50" relative="1" as="geometry">
                        <mxPoint x="230" y="280" as="sourcePoint"/>
                        <mxPoint x="290" y="150" as="targetPoint"/>
                    </mxGeometry>
                </mxCell>
            </root>
        </mxGraphModel>
    </diagram>
    <diagram id="FHEcnKZUY94CsRZemVNO" name="UML_Auction">
        <mxGraphModel dx="1336" dy="741" grid="1" gridSize="10" guides="1" tooltips="1" connect="1" arrows="1" fold="1" page="1" pageScale="1" pageWidth="850" pageHeight="1100" math="0" shadow="0">
            <root>
                <mxCell id="0"/>
                <mxCell id="1" parent="0"/>
                <mxCell id="_T_32xjjqrooFcNaGYBu-1" value="product" style="swimlane;fontStyle=0;childLayout=stackLayout;horizontal=1;startSize=26;fillColor=none;horizontalStack=0;resizeParent=1;resizeParentMax=0;resizeLast=0;collapsible=1;marginBottom=0;" vertex="1" parent="1">
                    <mxGeometry x="120" y="114" width="160" height="156" as="geometry"/>
                </mxCell>
                <mxCell id="_T_32xjjqrooFcNaGYBu-2" value="product_id : int" style="text;strokeColor=none;fillColor=none;align=left;verticalAlign=top;spacingLeft=4;spacingRight=4;overflow=hidden;rotatable=0;points=[[0,0.5],[1,0.5]];portConstraint=eastwest;fontStyle=4" vertex="1" parent="_T_32xjjqrooFcNaGYBu-1">
                    <mxGeometry y="26" width="160" height="26" as="geometry"/>
                </mxCell>
                <mxCell id="_T_32xjjqrooFcNaGYBu-3" value="name: varchar(200)" style="text;strokeColor=none;fillColor=none;align=left;verticalAlign=top;spacingLeft=4;spacingRight=4;overflow=hidden;rotatable=0;points=[[0,0.5],[1,0.5]];portConstraint=eastwest;" vertex="1" parent="_T_32xjjqrooFcNaGYBu-1">
                    <mxGeometry y="52" width="160" height="26" as="geometry"/>
                </mxCell>
                <mxCell id="_T_32xjjqrooFcNaGYBu-4" value="description: varchar(250)" style="text;strokeColor=none;fillColor=none;align=left;verticalAlign=top;spacingLeft=4;spacingRight=4;overflow=hidden;rotatable=0;points=[[0,0.5],[1,0.5]];portConstraint=eastwest;" vertex="1" parent="_T_32xjjqrooFcNaGYBu-1">
                    <mxGeometry y="78" width="160" height="26" as="geometry"/>
                </mxCell>
                <mxCell id="_T_32xjjqrooFcNaGYBu-5" value="image: varchar(254)" style="text;strokeColor=none;fillColor=none;align=left;verticalAlign=top;spacingLeft=4;spacingRight=4;overflow=hidden;rotatable=0;points=[[0,0.5],[1,0.5]];portConstraint=eastwest;" vertex="1" parent="_T_32xjjqrooFcNaGYBu-1">
                    <mxGeometry y="104" width="160" height="26" as="geometry"/>
                </mxCell>
                <mxCell id="_T_32xjjqrooFcNaGYBu-6" value="fk_catalogue_id int" style="text;strokeColor=none;fillColor=none;align=left;verticalAlign=top;spacingLeft=4;spacingRight=4;overflow=hidden;rotatable=0;points=[[0,0.5],[1,0.5]];portConstraint=eastwest;" vertex="1" parent="_T_32xjjqrooFcNaGYBu-1">
                    <mxGeometry y="130" width="160" height="26" as="geometry"/>
                </mxCell>
                <mxCell id="_T_32xjjqrooFcNaGYBu-7" value="sets" style="swimlane;fontStyle=0;childLayout=stackLayout;horizontal=1;startSize=26;fillColor=none;horizontalStack=0;resizeParent=1;resizeParentMax=0;resizeLast=0;collapsible=1;marginBottom=0;" vertex="1" parent="1">
                    <mxGeometry x="120" y="360" width="160" height="130" as="geometry"/>
                </mxCell>
                <mxCell id="_T_32xjjqrooFcNaGYBu-8" value="catalogue_id : int" style="text;strokeColor=none;fillColor=none;align=left;verticalAlign=top;spacingLeft=4;spacingRight=4;overflow=hidden;rotatable=0;points=[[0,0.5],[1,0.5]];portConstraint=eastwest;fontStyle=4" vertex="1" parent="_T_32xjjqrooFcNaGYBu-7">
                    <mxGeometry y="26" width="160" height="26" as="geometry"/>
                </mxCell>
                <mxCell id="_T_32xjjqrooFcNaGYBu-9" value="st_price: decimal" style="text;strokeColor=none;fillColor=none;align=left;verticalAlign=top;spacingLeft=4;spacingRight=4;overflow=hidden;rotatable=0;points=[[0,0.5],[1,0.5]];portConstraint=eastwest;" vertex="1" parent="_T_32xjjqrooFcNaGYBu-7">
                    <mxGeometry y="52" width="160" height="26" as="geometry"/>
                </mxCell>
                <mxCell id="_T_32xjjqrooFcNaGYBu-10" value="hi_bid: decimal" style="text;strokeColor=none;fillColor=none;align=left;verticalAlign=top;spacingLeft=4;spacingRight=4;overflow=hidden;rotatable=0;points=[[0,0.5],[1,0.5]];portConstraint=eastwest;" vertex="1" parent="_T_32xjjqrooFcNaGYBu-7">
                    <mxGeometry y="78" width="160" height="26" as="geometry"/>
                </mxCell>
                <mxCell id="_T_32xjjqrooFcNaGYBu-11" value="time: time" style="text;strokeColor=none;fillColor=none;align=left;verticalAlign=top;spacingLeft=4;spacingRight=4;overflow=hidden;rotatable=0;points=[[0,0.5],[1,0.5]];portConstraint=eastwest;" vertex="1" parent="_T_32xjjqrooFcNaGYBu-7">
                    <mxGeometry y="104" width="160" height="26" as="geometry"/>
                </mxCell>
                <mxCell id="_T_32xjjqrooFcNaGYBu-14" value="costumer" style="swimlane;fontStyle=0;childLayout=stackLayout;horizontal=1;startSize=26;fillColor=none;horizontalStack=0;resizeParent=1;resizeParentMax=0;resizeLast=0;collapsible=1;marginBottom=0;" vertex="1" parent="1">
                    <mxGeometry x="560" y="114" width="160" height="156" as="geometry"/>
                </mxCell>
                <mxCell id="_T_32xjjqrooFcNaGYBu-15" value="user_id : int" style="text;strokeColor=none;fillColor=none;align=left;verticalAlign=top;spacingLeft=4;spacingRight=4;overflow=hidden;rotatable=0;points=[[0,0.5],[1,0.5]];portConstraint=eastwest;fontStyle=4" vertex="1" parent="_T_32xjjqrooFcNaGYBu-14">
                    <mxGeometry y="26" width="160" height="26" as="geometry"/>
                </mxCell>
                <mxCell id="_T_32xjjqrooFcNaGYBu-16" value="password: varchar(29)" style="text;strokeColor=none;fillColor=none;align=left;verticalAlign=top;spacingLeft=4;spacingRight=4;overflow=hidden;rotatable=0;points=[[0,0.5],[1,0.5]];portConstraint=eastwest;" vertex="1" parent="_T_32xjjqrooFcNaGYBu-14">
                    <mxGeometry y="52" width="160" height="26" as="geometry"/>
                </mxCell>
                <mxCell id="_T_32xjjqrooFcNaGYBu-17" value="email: varchar(80)" style="text;strokeColor=none;fillColor=none;align=left;verticalAlign=top;spacingLeft=4;spacingRight=4;overflow=hidden;rotatable=0;points=[[0,0.5],[1,0.5]];portConstraint=eastwest;" vertex="1" parent="_T_32xjjqrooFcNaGYBu-14">
                    <mxGeometry y="78" width="160" height="26" as="geometry"/>
                </mxCell>
                <mxCell id="_T_32xjjqrooFcNaGYBu-18" value="first_name: varchar(80)" style="text;strokeColor=none;fillColor=none;align=left;verticalAlign=top;spacingLeft=4;spacingRight=4;overflow=hidden;rotatable=0;points=[[0,0.5],[1,0.5]];portConstraint=eastwest;" vertex="1" parent="_T_32xjjqrooFcNaGYBu-14">
                    <mxGeometry y="104" width="160" height="26" as="geometry"/>
                </mxCell>
                <mxCell id="_T_32xjjqrooFcNaGYBu-19" value="last_name: varchar(80)" style="text;strokeColor=none;fillColor=none;align=left;verticalAlign=top;spacingLeft=4;spacingRight=4;overflow=hidden;rotatable=0;points=[[0,0.5],[1,0.5]];portConstraint=eastwest;" vertex="1" parent="_T_32xjjqrooFcNaGYBu-14">
                    <mxGeometry y="130" width="160" height="26" as="geometry"/>
                </mxCell>
                <mxCell id="_T_32xjjqrooFcNaGYBu-21" value="bid" style="swimlane;fontStyle=0;childLayout=stackLayout;horizontal=1;startSize=26;fillColor=none;horizontalStack=0;resizeParent=1;resizeParentMax=0;resizeLast=0;collapsible=1;marginBottom=0;" vertex="1" parent="1">
                    <mxGeometry x="560" y="360" width="160" height="182" as="geometry"/>
                </mxCell>
                <mxCell id="_T_32xjjqrooFcNaGYBu-22" value="bid_id : int" style="text;strokeColor=none;fillColor=none;align=left;verticalAlign=top;spacingLeft=4;spacingRight=4;overflow=hidden;rotatable=0;points=[[0,0.5],[1,0.5]];portConstraint=eastwest;fontStyle=4" vertex="1" parent="_T_32xjjqrooFcNaGYBu-21">
                    <mxGeometry y="26" width="160" height="26" as="geometry"/>
                </mxCell>
                <mxCell id="_T_32xjjqrooFcNaGYBu-23" value="amount: decimal" style="text;strokeColor=none;fillColor=none;align=left;verticalAlign=top;spacingLeft=4;spacingRight=4;overflow=hidden;rotatable=0;points=[[0,0.5],[1,0.5]];portConstraint=eastwest;" vertex="1" parent="_T_32xjjqrooFcNaGYBu-21">
                    <mxGeometry y="52" width="160" height="26" as="geometry"/>
                </mxCell>
                <mxCell id="_T_32xjjqrooFcNaGYBu-24" value="b_date: date" style="text;strokeColor=none;fillColor=none;align=left;verticalAlign=top;spacingLeft=4;spacingRight=4;overflow=hidden;rotatable=0;points=[[0,0.5],[1,0.5]];portConstraint=eastwest;" vertex="1" parent="_T_32xjjqrooFcNaGYBu-21">
                    <mxGeometry y="78" width="160" height="26" as="geometry"/>
                </mxCell>
                <mxCell id="_T_32xjjqrooFcNaGYBu-25" value="b_time: datetime" style="text;strokeColor=none;fillColor=none;align=left;verticalAlign=top;spacingLeft=4;spacingRight=4;overflow=hidden;rotatable=0;points=[[0,0.5],[1,0.5]];portConstraint=eastwest;" vertex="1" parent="_T_32xjjqrooFcNaGYBu-21">
                    <mxGeometry y="104" width="160" height="26" as="geometry"/>
                </mxCell>
                <mxCell id="_T_32xjjqrooFcNaGYBu-26" value="fk_user_id int" style="text;strokeColor=none;fillColor=none;align=left;verticalAlign=top;spacingLeft=4;spacingRight=4;overflow=hidden;rotatable=0;points=[[0,0.5],[1,0.5]];portConstraint=eastwest;" vertex="1" parent="_T_32xjjqrooFcNaGYBu-21">
                    <mxGeometry y="130" width="160" height="26" as="geometry"/>
                </mxCell>
                <mxCell id="_T_32xjjqrooFcNaGYBu-27" value="fk_catalogue_id int" style="text;strokeColor=none;fillColor=none;align=left;verticalAlign=top;spacingLeft=4;spacingRight=4;overflow=hidden;rotatable=0;points=[[0,0.5],[1,0.5]];portConstraint=eastwest;" vertex="1" parent="_T_32xjjqrooFcNaGYBu-21">
                    <mxGeometry y="156" width="160" height="26" as="geometry"/>
                </mxCell>
                <mxCell id="_T_32xjjqrooFcNaGYBu-28" value="" style="endArrow=none;html=1;edgeStyle=orthogonalEdgeStyle;entryX=1;entryY=0.25;entryDx=0;entryDy=0;exitX=1;exitY=0.5;exitDx=0;exitDy=0;endFill=0;startArrow=ERmany;startFill=0;" edge="1" parent="1" source="_T_32xjjqrooFcNaGYBu-26" target="_T_32xjjqrooFcNaGYBu-14">
                    <mxGeometry width="50" height="50" relative="1" as="geometry">
                        <mxPoint x="230" y="310" as="sourcePoint"/>
                        <mxPoint x="280" y="260" as="targetPoint"/>
                        <Array as="points">
                            <mxPoint x="780" y="503"/>
                            <mxPoint x="780" y="153"/>
                        </Array>
                    </mxGeometry>
                </mxCell>
                <mxCell id="_T_32xjjqrooFcNaGYBu-29" style="edgeStyle=orthogonalEdgeStyle;html=1;exitX=1;exitY=0.5;exitDx=0;exitDy=0;entryX=0;entryY=0.5;entryDx=0;entryDy=0;endArrow=ERmany;endFill=0;" edge="1" parent="1" source="_T_32xjjqrooFcNaGYBu-8" target="_T_32xjjqrooFcNaGYBu-27">
                    <mxGeometry relative="1" as="geometry">
                        <Array as="points">
                            <mxPoint x="330" y="399"/>
                            <mxPoint x="330" y="529"/>
                        </Array>
                    </mxGeometry>
                </mxCell>
                <mxCell id="Qs10GJjvPnZc2yXOy0Uy-2" style="edgeStyle=orthogonalEdgeStyle;html=1;exitX=0;exitY=0.5;exitDx=0;exitDy=0;entryX=0;entryY=0.5;entryDx=0;entryDy=0;startArrow=ERmany;startFill=0;endArrow=none;endFill=0;" edge="1" parent="1" source="_T_32xjjqrooFcNaGYBu-6" target="_T_32xjjqrooFcNaGYBu-8">
                    <mxGeometry relative="1" as="geometry">
                        <Array as="points">
                            <mxPoint x="70" y="257"/>
                            <mxPoint x="70" y="399"/>
                        </Array>
                    </mxGeometry>
                </mxCell>
            </root>
        </mxGraphModel>
    </diagram>
</mxfile>